<svg version="1.1" viewBox="0.0 0.0 960.0 540.0" fill="none" stroke="none" stroke-linecap="square" stroke-miterlimit="10" xmlns:xlink="http://www.w3.org/1999/xlink" xmlns="http://www.w3.org/2000/svg"><clipPath id="p.0"><path d="m0 0l960.0 0l0 540.0l-960.0 0l0 -540.0z" clip-rule="nonzero"/></clipPath><g clip-path="url(#p.0)"><path fill="#073763" d="m0 0l960.0 0l0 540.0l-960.0 0z" fill-rule="evenodd"/><path fill="#000000" fill-opacity="0.0" d="m0 58.299213l960.0 0l0 423.40155l-960.0 0z" fill-rule="evenodd"/><path fill="#78909c" d="m224.5061 328.79922l-90.828125 0l-18.34375 58.5l-28.5 0l74.671875 -229.50002l37.0 0l74.65625 229.50002l-30.328125 0l-18.328125 -58.5zm-83.328125 -24.0l75.828125 0l-37.671875 -122.656265l-38.15625 122.656265zm471.65015 -64.82814l0 24.156265l-290.65625 0l0 -24.156265l290.65625 0zm0 63.156265l0 24.34375l-290.65625 0l0 -24.34375l290.65625 0zm-47.65625 -120.98439l90.65625 101.48439l-90.65625 101.5l-20.671875 -17.65625l20.828125 -23.0q3.84375 -4.5 8.421875 -8.671875q4.578125 -4.171875 12.078125 -8.328125l17.171875 -24.34375l17.828125 -19.5l-17.828125 -19.5l-17.171875 -24.156265q-7.5 -4.34375 -12.078125 -8.75q-4.578125 -4.421875 -8.421875 -8.75l-20.828125 -22.671875l20.671875 -17.65625zm264.1532 140.65627q0 -17.328125 -6.75 -26.75q-6.75 -9.421875 -17.921875 -13.078125q-11.15625 -3.671875 -24.484375 -3.671875l-39.171875 0l0 84.171875l37.828125 0q8.5 0 17.328125 -1.671875q8.84375 -1.671875 16.421875 -6.0q7.59375 -4.328125 12.171875 -12.25q4.578125 -7.921875 4.578125 -20.75zm-9.15625 -105.67189q0 -19.484375 -12.09375 -27.734375q-12.078125 -8.25 -32.90625 -8.25l-34.171875 0l0 74.328125l37.0 0q20.328125 0 31.25 -9.078125q10.921875 -9.09375 10.921875 -29.265625zm39.65625 104.67189q0 18.671875 -7.421875 31.34375q-7.40625 12.65625 -19.828125 20.15625q-12.40625 7.5 -27.65625 10.75q-15.25 3.25 -31.09375 3.25l-61.65625 0l0 -229.50002l56.5 0q15.15625 0 29.578125 2.75q14.421875 2.75 26.0 9.34375q11.578125 6.578125 18.578125 17.75q7.0 11.15625 7.0 28.0q0 14.828125 -6.078125 25.078125q-6.078125 10.25 -15.828125 16.42189q-9.75 6.15625 -20.75 8.65625q12.828125 2.0 24.90625 7.75q12.09375 5.75 19.921875 17.34375q7.828125 11.578125 7.828125 30.90625z" fill-rule="nonzero"/></g></svg>